<svg width="256" height="256" viewBox="0 0 256 256" fill="none" xmlns="http://www.w3.org/2000/svg" style="border-radius: 10px">
<rect width="256" height="256" fill="black"/>
<path d="M110.336 131.95V168.683C127.052 173.648 144.301 171.75 159.102 162.561C196.529 139.319 199.648 86.9286 163.74 60.7922C123.795 31.7179 68.8985 59.7378 68 108.486V205.196L68.3642 206.506L69.0878 206.765L69.8186 206.514C74.7929 201.536 79.3958 196.078 84.6312 191.417C89.7565 196.027 94.2731 201.414 99.094 206.387C99.463 206.789 100.314 207.225 100.788 206.88L100.975 206.585L101.013 109.459C101.926 84.0123 134.017 73.2506 149.79 93.6646C166.733 115.593 142.847 144.239 118.102 135.188C115.553 134.256 113.332 132.76 110.921 131.591L110.336 131.95Z" fill="white"/>
</svg>
